<svg xmlns="http://www.w3.org/2000/svg" viewBox="0 0 800 800">
  <path d="M367.5 210L425 168.75L425 543.75L367.5 585L367.5 210Z" fill="currentColor"/>
  <path d="M482.5 318.75L575 262.5L575 356.25L482.5 412.5L482.5 318.75Z" fill="currentColor"/>
  <path d="M310 318.75C310 255.469 361.719 203.75 425 203.75L425 318.75L310 318.75Z" fill="currentColor"/>
  <path d="M310 481.25C310 544.531 361.719 596.25 425 596.25L425 481.25L310 481.25Z" fill="currentColor"/>
  <path d="M252.5 318.75C252.5 223.594 329.844 146.25 425 146.25L425 203.75C361.719 203.75 310 255.469 310 318.75L252.5 318.75Z" fill="currentColor"/>
  <path d="M252.5 481.25C252.5 576.406 329.844 653.75 425 653.75L425 596.25C361.719 596.25 310 544.531 310 481.25L252.5 481.25Z" fill="currentColor"/>
</svg>
